<svg xmlns="http://www.w3.org/2000/svg" xmlns:xlink="http://www.w3.org/1999/xlink" viewBox="0 0 47.77 47.76"><defs><style>.cls-1{fill:none;}.cls-2{clip-path:url(#clip-path);}.cls-3{fill:#f2e7f9;}</style><clipPath id="clip-path" transform="translate(0.03 0)"><rect class="cls-1" width="47.99" height="48.02"/></clipPath></defs><g id="Layer_2" data-name="Layer 2"><g id="Layer_1-2" data-name="Layer 1"><g class="cls-2"><path class="cls-3" d="M23.87,0l2.21.14a24.68,24.68,0,0,1,8,2.15,22.33,22.33,0,0,1,3.5,2q1,.4,4.59,4.21c.58.46,1.67,2.17,3.29,5.13a24.09,24.09,0,0,1,1.4,3.84,25.56,25.56,0,0,1,.79,8.57A23.9,23.9,0,0,1,40,41.56,22.79,22.79,0,0,1,36.79,44l-1.74,1a23.85,23.85,0,0,1-3.78,1.57,22.21,22.21,0,0,1-9.17,1.1Q13.3,47.28,6.21,40a23,23,0,0,1-4.33-6.78,26.19,26.19,0,0,1-1.28-4A21.35,21.35,0,0,1,0,23.9a26.06,26.06,0,0,1,1.5-8.35,23.17,23.17,0,0,1,1.72-3.67Q6,7.65,7,7a23.23,23.23,0,0,1,6.66-4.71Q18.37.43,19.52.44A28.86,28.86,0,0,1,23.87,0ZM28,11.29h-.18a2.86,2.86,0,0,0-1.65.63L14.49,22.58a2.93,2.93,0,0,0,.27,4.56l13.18,9.35a3,3,0,0,0,1.57.45A2.92,2.92,0,0,0,32,32.47a3.12,3.12,0,0,0-.79-.85L21.12,24.47,30,16.39a2.84,2.84,0,0,0,.69-.94A2.93,2.93,0,0,0,28,11.29" transform="translate(0.03 0)"/></g></g></g></svg>