<svg xmlns="http://www.w3.org/2000/svg" xmlns:xlink="http://www.w3.org/1999/xlink" viewBox="0 0 47.77 47.76"><defs><style>.cls-1{fill:none;}.cls-2{clip-path:url(#clip-path);}.cls-3{fill:#f2e7f9;}</style><clipPath id="clip-path" transform="translate(-0.25 0)"><rect class="cls-1" width="48.02" height="48.02"/></clipPath></defs><g id="Layer_2" data-name="Layer 2"><g id="Layer_1-2" data-name="Layer 1"><g class="cls-2"><path class="cls-3" d="M24.12,0,21.91.14a24.68,24.68,0,0,0-8,2.15,22.33,22.33,0,0,0-3.5,2q-1,.4-4.59,4.21-.87.69-3.29,5.13a24.09,24.09,0,0,0-1.4,3.84,25.56,25.56,0,0,0-.79,8.57A23.9,23.9,0,0,0,8,41.56,22.79,22.79,0,0,0,11.2,44l1.74,1a23.85,23.85,0,0,0,3.78,1.57,22.21,22.21,0,0,0,9.17,1.1Q34.7,47.28,41.78,40a23.19,23.19,0,0,0,4.33-6.78,26.19,26.19,0,0,0,1.28-4A21.84,21.84,0,0,0,48,23.9a26.07,26.07,0,0,0-1.51-8.35,22.27,22.27,0,0,0-1.71-3.67C42.91,9.06,41.66,7.43,41,7a23.28,23.28,0,0,0-6.67-4.71C31.2,1.05,29.23.43,28.47.44A29,29,0,0,0,24.12,0ZM20,11.29h.18a2.86,2.86,0,0,1,1.65.63L33.5,22.58a2.93,2.93,0,0,1-.27,4.56L20,36.49a3,3,0,0,1-1.56.45A2.92,2.92,0,0,1,16,32.47a3.12,3.12,0,0,1,.79-.85l10.09-7.15L18,16.39a2.84,2.84,0,0,1-.69-.94A2.93,2.93,0,0,1,20,11.29" transform="translate(-0.25 0)"/></g></g></g></svg>